<svg xmlns="http://www.w3.org/2000/svg" xmlns:xlink="http://www.w3.org/1999/xlink" width="500" zoomAndPan="magnify" viewBox="0 0 375 374.999991" height="500" preserveAspectRatio="xMidYMid meet" version="1.0"><defs><g/><clipPath id="f32daed35f"><path d="M 95 81 L 280 81 L 280 294 L 95 294 Z M 95 81 " clip-rule="nonzero"/></clipPath><clipPath id="5f435b6153"><path d="M 142.253906 55.308594 L 324.640625 160.796875 L 232.65625 319.839844 L 50.269531 214.351562 Z M 142.253906 55.308594 " clip-rule="nonzero"/></clipPath><clipPath id="048395b340"><path d="M 279.042969 134.421875 L 187.851562 81.679688 L 96.304688 134.757812 L 95.949219 240.578125 L 187.144531 293.320312 L 278.691406 240.242188 L 279.042969 134.421875 M 187.152344 287.582031 L 100.921875 237.707031 L 101.265625 137.625 L 187.839844 87.417969 L 274.074219 137.292969 L 273.730469 237.375 L 187.152344 287.582031 " clip-rule="nonzero"/></clipPath></defs><g clip-path="url(#f32daed35f)"><g clip-path="url(#5f435b6153)"><g clip-path="url(#048395b340)"><path fill="#64ffda" d="M 142.253906 55.308594 L 324.640625 160.796875 L 232.65625 319.839844 L 50.269531 214.351562 Z M 142.253906 55.308594 " fill-opacity="1" fill-rule="nonzero"/></g></g></g><g fill="#64ffda" fill-opacity="1"><g transform="translate(149.571762, 240.60907)"><g><path d="M 71.023438 -85.832031 L 57.183594 -85.832031 C 56.433594 -85.832031 55.898438 -85.292969 55.898438 -84.863281 L 55.898438 -28.96875 L 16.308594 -85.507812 C 16.199219 -85.722656 15.558594 -85.832031 15.34375 -85.832031 L 1.074219 -85.832031 C 0.535156 -85.832031 0 -85.292969 0 -84.863281 L 0 -20.597656 L 16.414062 -20.597656 L 16.414062 -56.863281 L 55.898438 -0.320312 C 56.003906 -0.105469 56.648438 0 56.863281 0 L 71.023438 0 C 71.777344 0 72.207031 -0.535156 72.207031 -0.964844 L 72.207031 -84.863281 C 72.207031 -85.292969 71.777344 -85.832031 71.023438 -85.832031 Z M 71.023438 -85.832031 "/></g></g></g></svg>