<svg xmlns="http://www.w3.org/2000/svg" xmlns:xlink="http://www.w3.org/1999/xlink" width="500" zoomAndPan="magnify" viewBox="0 0 375 374.999991" height="500" preserveAspectRatio="xMidYMid meet" version="1.0"><defs><g/><clipPath id="0b6791e2d9"><path d="M 26 1 L 349 1 L 349 374 L 26 374 Z M 26 1 " clip-rule="nonzero"/></clipPath><clipPath id="e5d5c713bc"><path d="M 107.785156 -45.402344 L 429.128906 140.449219 L 267.066406 420.660156 L -54.277344 234.808594 Z M 107.785156 -45.402344 " clip-rule="nonzero"/></clipPath><clipPath id="637374506f"><path d="M 348.792969 93.988281 L 188.121094 1.0625 L 26.828125 94.574219 L 26.207031 281.011719 L 186.878906 373.9375 L 348.171875 280.425781 L 348.792969 93.988281 M 186.894531 363.828125 L 34.964844 275.957031 L 35.570312 99.628906 L 188.105469 11.171875 L 340.035156 99.042969 L 339.429688 275.371094 L 186.894531 363.828125 " clip-rule="nonzero"/></clipPath></defs><g clip-path="url(#0b6791e2d9)"><g clip-path="url(#e5d5c713bc)"><g clip-path="url(#637374506f)"><path fill="#64ffda" d="M 107.785156 -45.402344 L 429.128906 140.449219 L 267.066406 420.660156 L -54.277344 234.808594 Z M 107.785156 -45.402344 " fill-opacity="1" fill-rule="nonzero"/></g></g></g><g fill="#64ffda" fill-opacity="1"><g transform="translate(118.307365, 249.120922)"><g><path d="M 121.8125 -119.359375 L 121.8125 4.265625 L 121.328125 4.265625 L 35.25 -79.1875 L 35.734375 0 L 16.390625 0 L 16.390625 -123.453125 L 17.375 -123.453125 L 103.125 -39.015625 L 102.796875 -119.359375 Z M 121.8125 -119.359375 "/></g></g></g></svg>